<svg width="48" height="48" viewBox="0 0 48 48" fill="none" xmlns="http://www.w3.org/2000/svg">
<rect width="48" height="48" rx="24" fill="#F8F8F8"/>
<path d="M24.9511 14.927C24.6521 14.006 23.3491 14.006 23.0491 14.927L21.5301 19.601C21.4647 19.8017 21.3374 19.9765 21.1666 20.1004C20.9958 20.2244 20.7901 20.2911 20.5791 20.291H15.6651C14.6971 20.291 14.2931 21.531 15.0771 22.101L19.0531 24.989C19.2239 25.1132 19.351 25.2882 19.4162 25.4891C19.4814 25.6899 19.4814 25.9062 19.4161 26.107L17.8981 30.781C17.5981 31.702 18.6531 32.469 19.4361 31.899L23.4121 29.011C23.583 28.8868 23.7888 28.8199 24.0001 28.8199C24.2114 28.8199 24.4172 28.8868 24.5881 29.011L28.5641 31.899C29.3471 32.469 30.4021 31.703 30.1021 30.781L28.5841 26.107C28.5188 25.9062 28.5188 25.6899 28.584 25.4891C28.6492 25.2882 28.7763 25.1132 28.9471 24.989L32.9231 22.101C33.7061 21.531 33.3041 20.291 32.3351 20.291H27.4201C27.2092 20.2909 27.0038 20.224 26.8332 20.1001C26.6625 19.9762 26.5355 19.8015 26.4701 19.601L24.9511 14.927Z" stroke="#919191" stroke-width="2" stroke-linecap="round" stroke-linejoin="round"/>
</svg>
